<svg version="1.1" viewBox="0.0 0.0 559.2388451443569 101.67979002624672" fill="none" stroke="none" stroke-linecap="square" stroke-miterlimit="10" xmlns:xlink="http://www.w3.org/1999/xlink" xmlns="http://www.w3.org/2000/svg"><clipPath id="p.0"><path d="m0 0l559.23883 0l0 101.67979l-559.23883 0l0 -101.67979z" clip-rule="nonzero"/></clipPath><g clip-path="url(#p.0)"><path fill="#000000" fill-opacity="0.0" d="m0 0l559.23883 0l0 101.67979l-559.23883 0z" fill-rule="evenodd"/><path fill="#000000" fill-opacity="0.0" d="m-13.783194 -42.3937l591.8425 0l0 139.81102l-591.8425 0z" fill-rule="evenodd"/><path fill="#0b5394" d="m34.810555 0.8719242q6.796875 0 14.796875 0.73437494q8.0 0.734375 15.609375 3.0000002l-1.34375 13.468749q-5.859375 -0.125 -13.734375 -0.265625q-7.859375 -0.140625 -15.453125 -0.140625q-3.734373 0 -6.343748 0.203125q-2.59375 0.203125 -4.203125 1.078125q-1.59375 0.859375 -2.265625 2.59375q-0.65625 1.734375 -0.65625 4.796875q0 4.671875 2.203125 6.812502q2.203125 2.125 7.53125 3.859375l17.734373 5.734375q11.0625 3.734375 15.328125 10.140625q4.265625 6.390625 4.265625 16.78125q0 7.875 -1.875 13.078125q-1.859375 5.1875 -5.859375 8.125q-4.0 2.9375 -10.53125 4.203125q-6.53125 1.265625 -16.0 1.265625q-4.531248 0 -12.937498 -0.609375q-8.390625 -0.59375 -19.1875 -2.984375l1.3281251 -14.40625q7.859375 0.140625 13.65625 0.34375q5.8125 0.1875 9.9375 0.265625q4.140625 0.0625 7.203123 0.0625q5.328125 0 8.328125 -0.671875q3.0 -0.671875 4.203125 -2.671875q1.203125 -2.0 1.203125 -5.734375q0 -3.1875 -0.875 -5.125q-0.859375 -1.9375 -2.796875 -3.0625q-1.921875 -1.140625 -5.265625 -2.078125l-18.656248 -6.390625q-10.53125 -3.875 -14.9375 -10.140625q-4.40625 -6.265625 -4.40625 -16.531252q0 -8.0 1.9375001 -12.999999q1.9375 -5.0 6.0 -7.796875q4.0625 -2.7968752 10.53125 -3.8593752q6.46875 -1.078125 15.531248 -1.078125zm119.33866 1.734375l-31.078133 62.796875l-19.1875 0l-31.203125 -62.796875l21.203125 0l15.46875 33.875q1.1875 2.65625 1.984375 5.734375q0.8125 3.0625 1.46875 5.859375l1.34375 0q0.796875 -2.796875 1.59375 -5.859375q0.796875 -3.078125 1.875 -5.734375l15.328133 -33.875l21.203125 0zm-30.531258 50.40625l0 41.59375l-20.40625 0l0 -41.59375l20.40625 0zm74.78437 -51.46875q12.0 0 19.125 2.0625q7.140625 2.0625002 10.34375 7.265625q3.203125 5.203124 3.203125 14.671874q0 9.859377 -3.796875 15.000002q-3.796875 5.125 -12.46875 5.9375l0 0.796875q10.671875 0.9375 14.9375 7.140625q4.265625 6.1875 4.265625 17.25q0 9.46875 -3.265625 14.671875q-3.265625 5.203125 -10.140625 7.265625q-6.859375 2.0625 -17.9375 2.0625q-8.921875 0 -15.53125 -0.0625q-6.59375 -0.0625 -12.203125 -0.328125q-5.59375 -0.265625 -11.453125 -0.671875l2.0 -14.125q3.203125 0.125 12.328125 0.265625q9.140625 0.125 21.265625 0.125q5.59375 0 8.796875 -1.0625q3.203125 -1.0625 4.46875 -3.921875q1.265625 -2.875 1.265625 -8.21875q0 -5.734375 -1.328125 -8.734375q-1.328125 -3.0 -4.609375 -4.1875q-3.265625 -1.203125 -9.0 -1.34375l-33.328125 0l0 -12.921875l33.0625 0q4.9375 -0.140625 7.796875 -1.0625q2.875 -0.9375 4.078125 -3.609375q1.203125 -2.671875 1.203125 -7.468752q0 -4.9375 -1.265625 -7.53125q-1.265625 -2.59375 -4.34375 -3.53125q-3.0625 -0.9375 -8.53125 -0.9375q-7.46875 0 -13.203125 0q-5.734375 0 -10.265625 0.078125q-4.53125 0.0625 -8.390625 0.328125l-2.0 -14.140624q5.328125 -0.53125 10.328125 -0.734375q5.0 -0.203125 10.859375 -0.265625q5.875 -0.0625 13.734375 -0.0625zm-14.921875 1.0625l0 92.0l-20.0 0l0 -92.0l20.0 0zm84.25191 -0.390625q7.46875 0 15.0625 0.0625q7.609375 0.0625 14.9375 0.328125q7.34375 0.265625 13.734375 0.9375l-0.921875 14.796874l-35.34375 0q-3.328125 0 -5.0 1.734375q-1.65625 1.734375 -1.65625 5.0625l0 46.9375q0 3.328125 1.65625 5.0625q1.671875 1.734375 5.0 1.734375l35.34375 0l0.921875 14.796875q-6.390625 0.53125 -13.734375 0.875q-7.328125 0.328125 -14.9375 0.390625q-7.59375 0.078125 -15.0625 0.078125q-8.796875 0 -14.20311 -5.125q-5.390625 -5.140625 -5.390625 -13.40625l0 -55.734375q0 -8.406249 5.390625 -13.468749q5.4062347 -5.0625 14.20311 -5.0625zm-17.187485 37.328125l55.062485 0l0 14.390625l-55.062485 0l0 -14.390625zm110.79808 -38.265625q12.125 0 19.65625 2.46875q7.53125 2.4687502 11.0625 8.40625q3.546875 5.921874 3.546875 16.453125q0 6.406252 -1.671875 11.281252q-1.671875 4.859375 -5.546875 7.796875q-3.859375 2.921875 -10.515625 3.71875l0 0.671875q2.390625 0.40625 4.984375 1.875q2.609375 1.453125 4.875 4.328125q2.265625 2.859375 3.328125 7.65625l8.0 28.671875l-21.453125 0l-7.078125 -28.0q-1.1875 -4.53125 -3.53125 -6.265625q-2.328125 -1.734375 -6.46875 -1.734375q-9.0625 0 -15.265625 -0.0625q-6.1875 -0.0625 -10.390625 -0.203125q-4.203125 -0.140625 -7.53125 -0.265625l0.390625 -14.796875l33.203125 0q5.328125 0 8.453125 -1.125q3.140625 -1.140625 4.40625 -4.078125q1.265625 -2.9375 1.265625 -8.140627q0 -5.328125 -1.265625 -8.1875q-1.265625 -2.875 -4.40625 -4.0q-3.125 -1.140625 -8.453125 -1.140625q-12.53125 0 -21.203125 0.140625q-8.65625 0.125 -11.859375 0.390625l-2.0 -14.531249q5.59375 -0.65625 10.53125 -0.921875q4.9375 -0.28125 10.796875 -0.34375q5.875 -0.0625 14.140625 -0.0625zm-15.34375 1.328125l0 92.0l-20.125 0l0 -92.0l20.125 0zm85.73212 -0.390625q7.0625 0 14.46875 0.0625q7.40625 0.0625 14.53125 0.40625q7.140625 0.328125 13.265625 0.984375l-1.0625 14.671874l-33.328125 0q-3.609375 0 -5.484375 1.734375q-1.859375 1.734375 -1.859375 5.0625l0 69.46875l-20.390625 0l0 -73.59375q0 -8.531249 5.453125 -13.656249q5.46875 -5.140625 14.40625 -5.140625zm-17.46875 38.921875l53.734375 0l0 14.40625l-53.734375 0l0 -14.40625zm144.40442 -38.53125l-31.078125 62.796875l-19.1875 0l-31.203125 -62.796875l21.203125 0l15.46875 33.875q1.1875 2.65625 1.984375 5.734375q0.8125 3.0625 1.46875 5.859375l1.34375 0q0.796875 -2.796875 1.59375 -5.859375q0.796875 -3.078125 1.875 -5.734375l15.328125 -33.875l21.203125 0zm-30.53125 50.40625l0 41.59375l-20.40625 0l0 -41.59375l20.40625 0z" fill-rule="nonzero"/></g></svg>